<svg xmlns="http://www.w3.org/2000/svg" xmlns:xlink="http://www.w3.org/1999/xlink" width="1080" zoomAndPan="magnify" viewBox="0 0 810 809.999993" height="1080" preserveAspectRatio="xMidYMid meet" version="1.0"><defs><clipPath id="1aac67f1c0"><path d="M 446.222656 1340.449219 L -42.5 851.726562 L 850.945312 -41.722656 L 1339.671875 447 Z M 446.222656 1340.449219 " clip-rule="nonzero"/></clipPath><clipPath id="9f00fa8611"><path d="M 446.222656 1340.449219 L -42.5 851.726562 L 850.464844 -41.238281 L 1339.1875 447.484375 Z M 446.222656 1340.449219 " clip-rule="nonzero"/></clipPath><clipPath id="351c02f69e"><path d="M -58.542969 868.664062 L -547.265625 379.941406 L 346.179688 -513.503906 L 834.902344 -24.78125 Z M -58.542969 868.664062 " clip-rule="nonzero"/></clipPath><clipPath id="7101c3bff3"><path d="M -58.542969 868.664062 L -547.265625 379.941406 L 345.699219 -513.023438 L 834.421875 -24.300781 Z M -58.542969 868.664062 " clip-rule="nonzero"/></clipPath></defs><rect x="-81" width="972" fill="#ffffff" y="-80.999999" height="971.999992" fill-opacity="1"/><rect x="-81" width="972" fill="#ffffff" y="-80.999999" height="971.999992" fill-opacity="1"/><g clip-path="url(#1aac67f1c0)"><g clip-path="url(#9f00fa8611)"><path fill="#ffd41c" d="M 446.222656 1340.449219 L -42.5 851.726562 L 850.945312 -41.722656 L 1339.671875 447 Z M 446.222656 1340.449219 " fill-opacity="1" fill-rule="nonzero"/></g></g><g clip-path="url(#351c02f69e)"><g clip-path="url(#7101c3bff3)"><path fill="#35408e" d="M -58.542969 868.664062 L -547.265625 379.941406 L 346.179688 -513.503906 L 834.902344 -24.78125 Z M -58.542969 868.664062 " fill-opacity="1" fill-rule="nonzero"/></g></g></svg>